<svg xmlns="http://www.w3.org/2000/svg">
	<symbol id="cross" viewBox="0 0 24 24" fill="currentColor">
		<path
			d="M10.59 12L4.54 5.96l1.42-1.42L12 10.59l6.04-6.05 1.42 1.42L13.41 12l6.05 6.04-1.42 1.42L12 13.41l-6.04 6.05-1.42-1.42L10.59 12z">
		</path>
	</symbol>
	<symbol id="larger" viewBox="0 0 24 24" fill="currentColor">
		<path
			d="M14.586 12L7.543 4.96l1.414-1.42L17.414 12l-8.457 8.46-1.414-1.42L14.586 12z">
		</path>
	</symbol>
	<symbol id="photo" viewBox="0 0 24 24" fill="currentColor">
		<path
			d="M9.697 3H11v2h-.697l-3 2H5c-.276 0-.5.224-.5.5v11c0 .276.224.5.5.5h14c.276 0 .5-.224.5-.5V10h2v8.5c0 1.381-1.119 2.5-2.5 2.5H5c-1.381 0-2.5-1.119-2.5-2.5v-11C2.5 6.119 3.619 5 5 5h1.697l3-2zM12 10.5c-1.105 0-2 .895-2 2s.895 2 2 2 2-.895 2-2-.895-2-2-2zm-4 2c0-2.209 1.791-4 4-4s4 1.791 4 4-1.791 4-4 4-4-1.791-4-4zM17 2c0 1.657-1.343 3-3 3v1c1.657 0 3 1.343 3 3h1c0-1.657 1.343-3 3-3V5c-1.657 0-3-1.343-3-3h-1z">
		</path>
	</symbol>
  <symbol id="left-arrow" viewBox="0 0 24 24" fill="currentColor">
    <g>
      <path d="M7.414 13l5.043 5.04-1.414 1.42L3.586 12l7.457-7.46 1.414 1.42L7.414 11H21v2H7.414z"></path>
    </g>
  </symbol>
  <symbol id="search" viewBox="0 0 24 24" fill="currentColor">
    <g>
      <path d="M10.25 3.75c-3.59 0-6.5 2.91-6.5 6.5s2.91 6.5 6.5 6.5c1.795 0 3.419-.726 4.596-1.904 1.178-1.177 1.904-2.801 1.904-4.596 0-3.59-2.91-6.5-6.5-6.5zm-8.5 6.5c0-4.694 3.806-8.5 8.5-8.5s8.5 3.806 8.5 8.5c0 1.986-.682 3.815-1.824 5.262l4.781 4.781-1.414 1.414-4.781-4.781c-1.447 1.142-3.276 1.824-5.262 1.824-4.694 0-8.5-3.806-8.5-8.5z"></path>
    </g>
  </symbol>
  <symbol id="link" viewBox="0 0 24 24" fill="currentColor">
    <g>
      <path d="M18.36 5.64c-1.95-1.96-5.11-1.96-7.07 0L9.88 7.05 8.46 5.64l1.42-1.42c2.73-2.73 7.16-2.73 9.9 0 2.73 2.74 2.73 7.17 0 9.9l-1.42 1.42-1.41-1.42 1.41-1.41c1.96-1.96 1.96-5.12 0-7.07zm-2.12 3.53l-7.07 7.07-1.41-1.41 7.07-7.07 1.41 1.41zm-12.02.71l1.42-1.42 1.41 1.42-1.41 1.41c-1.96 1.96-1.96 5.12 0 7.07 1.95 1.96 5.11 1.96 7.07 0l1.41-1.41 1.42 1.41-1.42 1.42c-2.73 2.73-7.16 2.73-9.9 0-2.73-2.74-2.73-7.17 0-9.9z"></path>
    </g>
  </symbol>
  <symbol id="calendar" viewBox="0 0 24 24" fill="currentColor">
    <g>
      <path d="M7 4V3h2v1h6V3h2v1h1.5C19.89 4 21 5.12 21 6.5v12c0 1.38-1.11 2.5-2.5 2.5h-13C4.12 21 3 19.88 3 18.5v-12C3 5.12 4.12 4 5.5 4H7zm0 2H5.5c-.27 0-.5.22-.5.5v12c0 .28.23.5.5.5h13c.28 0 .5-.22.5-.5v-12c0-.28-.22-.5-.5-.5H17v1h-2V6H9v1H7V6zm0 6h2v-2H7v2zm0 4h2v-2H7v2zm4-4h2v-2h-2v2zm0 4h2v-2h-2v2zm4-4h2v-2h-2v2z"></path>
    </g>
  </symbol>
  <symbol id="right-angle" viewBox="0 0 24 24" fill="currentColor">
    <g>
      <path d="M14.586 12L7.543 4.96l1.414-1.42L17.414 12l-8.457 8.46-1.414-1.42L14.586 12z"></path>
    </g>
  </symbol>
</svg>