<svg xmlns="http://www.w3.org/2000/svg">
	<symbol id="cross" viewBox="0 0 24 24" fill="currentColor">
		<path
			d="M10.59 12L4.54 5.96l1.42-1.42L12 10.59l6.04-6.05 1.42 1.42L13.41 12l6.05 6.04-1.42 1.42L12 13.41l-6.04 6.05-1.42-1.42L10.59 12z">
		</path>
	</symbol>
	<symbol id="larger" viewBox="0 0 24 24" fill="currentColor">
		<path
			d="M14.586 12L7.543 4.96l1.414-1.42L17.414 12l-8.457 8.46-1.414-1.42L14.586 12z">
		</path>
	</symbol>
	<symbol id="photo" viewBox="0 0 24 24" fill="currentColor">
		<path
			d="M9.697 3H11v2h-.697l-3 2H5c-.276 0-.5.224-.5.5v11c0 .276.224.5.5.5h14c.276 0 .5-.224.5-.5V10h2v8.5c0 1.381-1.119 2.5-2.5 2.5H5c-1.381 0-2.5-1.119-2.5-2.5v-11C2.5 6.119 3.619 5 5 5h1.697l3-2zM12 10.5c-1.105 0-2 .895-2 2s.895 2 2 2 2-.895 2-2-.895-2-2-2zm-4 2c0-2.209 1.791-4 4-4s4 1.791 4 4-1.791 4-4 4-4-1.791-4-4zM17 2c0 1.657-1.343 3-3 3v1c1.657 0 3 1.343 3 3h1c0-1.657 1.343-3 3-3V5c-1.657 0-3-1.343-3-3h-1z">
		</path>
	</symbol>
</svg>